<svg width="12" height="11" viewBox="0 0 12 11" fill="none" xmlns="http://www.w3.org/2000/svg">
<path d="M0.724548 5.8276C0.724548 6.20562 1.04825 6.51048 1.43542 6.51048H5.32618V10.2481C5.32618 10.62 5.64988 10.9309 6.03705 10.9309C6.42422 10.9309 6.74792 10.62 6.74792 10.2481V6.51048H10.6387C11.0258 6.51048 11.3495 6.20562 11.3495 5.8276C11.3495 5.45567 11.0258 5.14471 10.6387 5.14471H6.74792V1.40713C6.74792 1.0352 6.42422 0.724243 6.03705 0.724243C5.64988 0.724243 5.32618 1.0352 5.32618 1.40713V5.14471H1.43542C1.04825 5.14471 0.724548 5.45567 0.724548 5.8276Z" fill="white"/>
</svg>
